<svg xmlns="http://www.w3.org/2000/svg" viewBox="0 0 900 600"><rect width="900" height="600" fill="#dbe9f3"/><circle cx="170" cy="120" r="110" fill="#ffd25f" opacity=".7"/><circle cx="730" cy="500" r="160" fill="#e9733d" opacity=".25"/><g stroke="#14120e" stroke-width="8" fill="none" stroke-linecap="round" opacity=".95"><path d="M80 480 C230 365 280 280 450 300 C620 322 680 210 820 120"/><path d="M120 130 C250 230 310 370 450 300 C570 240 665 310 790 410"/><path d="M300 65 C340 180 350 300 300 520"/><path d="M620 60 C580 190 600 360 690 540"/><path d="M70 310 C210 300 320 350 450 300 C560 260 700 270 835 315"/></g><g fill="#fffaf1" stroke="#14120e" stroke-width="5"><circle cx="450" cy="300" r="58"/><circle cx="300" cy="180" r="28"/><circle cx="620" cy="250" r="28"/><circle cx="690" cy="420" r="28"/><circle cx="210" cy="390" r="28"/></g><g font-family="Arial" font-weight="900" fill="#14120e"><text x="385" y="310" font-size="24">ATL ACCESS</text><text x="52" y="555" font-size="44">mobility resilience</text></g><rect x="575" y="78" width="235" height="85" rx="28" fill="#fffaf1" stroke="#14120e" stroke-width="5"/><text x="604" y="131" font-family="Arial" font-weight="900" font-size="24" fill="#14120e">equity lens</text></svg>