<svg xmlns="http://www.w3.org/2000/svg" viewBox="0 0 900 600"><defs><linearGradient id="g" x1="0" x2="1" y1="0" y2="1"><stop stop-color="#07100b"/><stop offset="1" stop-color="#123b27"/></linearGradient><filter id="s"><feDropShadow dx="0" dy="20" stdDeviation="18" flood-color="#3b2d20" flood-opacity=".18"/></filter></defs><rect width="900" height="600" fill="url(#g)"/><circle cx="760" cy="80" r="90" fill="#c5ad63" opacity=".85"/><path d="M0 445 C170 385 270 520 430 470 C600 415 690 345 900 398 L900 600 L0 600 Z" fill="#2ea866" opacity=".9"/><g filter="url(#s)"><rect x="70" y="98" width="180" height="120" rx="28" fill="#0f1712" stroke="#eaf7ed" stroke-width="6"/><rect x="360" y="78" width="180" height="120" rx="28" fill="#0f1712" stroke="#eaf7ed" stroke-width="6"/><rect x="650" y="105" width="180" height="120" rx="28" fill="#0f1712" stroke="#eaf7ed" stroke-width="6"/><rect x="220" y="335" width="190" height="128" rx="28" fill="#0f1712" stroke="#eaf7ed" stroke-width="6"/><rect x="510" y="330" width="190" height="128" rx="28" fill="#0f1712" stroke="#eaf7ed" stroke-width="6"/></g><g stroke="#eaf7ed" stroke-width="7" fill="none" stroke-linecap="round"><path d="M250 158 C300 130 320 130 360 138"/><path d="M540 138 C600 128 620 140 650 165"/><path d="M160 220 C185 285 220 330 290 335"/><path d="M735 230 C720 292 670 330 620 330"/><path d="M410 400 C455 375 470 374 510 393"/></g><g font-family="Arial, sans-serif" font-weight="900" fill="#eaf7ed"><text x="104" y="145" font-size="26">Forest</text><text x="101" y="177" font-size="26">Residue</text><text x="407" y="139" font-size="25">SAF</text><text x="390" y="170" font-size="25">Plant</text><text x="686" y="154" font-size="25">Fuel</text><text x="685" y="185" font-size="25">Use</text><text x="257" y="390" font-size="24">Carbon</text><text x="257" y="420" font-size="24">Intensity</text><text x="548" y="388" font-size="24">Equity</text><text x="548" y="418" font-size="24">Burden</text></g><g fill="#eaf7ed"><circle cx="330" cy="130" r="7"/><circle cx="610" cy="140" r="7"/><circle cx="210" cy="300" r="7"/><circle cx="684" cy="292" r="7"/></g></svg>