<svg xmlns="http://www.w3.org/2000/svg" viewBox="0 0 900 600"><rect width="900" height="600" fill="#f2dfc3"/><g stroke="#14120e" stroke-width="4" fill="none" opacity=".9"><path d="M120 300 C220 120 360 120 450 300 C540 480 680 480 780 300"/><path d="M120 260 C220 80 360 80 450 260 C540 440 680 440 780 260"/><path d="M120 340 C220 160 360 160 450 340 C540 520 680 520 780 340"/><path d="M170 150 C320 230 585 230 730 150"/><path d="M170 450 C320 370 585 370 730 450"/></g><ellipse cx="450" cy="300" rx="210" ry="92" fill="none" stroke="#e9733d" stroke-width="16"/><ellipse cx="450" cy="300" rx="280" ry="125" fill="none" stroke="#2f5f82" stroke-width="7" opacity=".75"/><text x="82" y="92" font-family="Arial" font-weight="900" font-size="42" fill="#14120e">NURBS-BEM field</text><text x="84" y="135" font-family="Arial" font-weight="700" font-size="22" fill="#6d675c">mesh-free solver illustration</text></svg>