<svg xmlns="http://www.w3.org/2000/svg" viewBox="0 0 900 600"><rect width="900" height="600" fill="#07100b"/><circle cx="450" cy="270" r="150" fill="#0f1712" stroke="#eaf7ed" stroke-width="7"/><path d="M270 520 C290 395 355 330 450 330 C545 330 610 395 630 520" fill="#2ea866" stroke="#eaf7ed" stroke-width="7"/><path d="M330 265 C360 210 410 190 455 204 C515 223 542 270 538 328" fill="none" stroke="#eaf7ed" stroke-width="15" stroke-linecap="round"/><circle cx="395" cy="275" r="10" fill="#eaf7ed"/><circle cx="495" cy="275" r="10" fill="#eaf7ed"/><path d="M410 330 C440 352 472 352 498 330" fill="none" stroke="#eaf7ed" stroke-width="7" stroke-linecap="round"/><rect x="72" y="70" width="258" height="76" rx="30" fill="#0f1712" stroke="#eaf7ed" stroke-width="6"/><text x="105" y="119" font-family="Arial" font-weight="900" font-size="26" fill="#eaf7ed">research identity</text><rect x="600" y="420" width="210" height="70" rx="28" fill="#52c878" stroke="#eaf7ed" stroke-width="6"/><text x="632" y="464" font-family="Arial" font-weight="900" font-size="24" fill="#eaf7ed">systems → cities</text></svg>