<svg xmlns="http://www.w3.org/2000/svg" viewBox="0 0 900 600"><rect width="900" height="600" fill="#050806"/><circle cx="760" cy="120" r="105" fill="#c5ad63"/><circle cx="150" cy="500" r="160" fill="#69b78a" opacity=".75"/><g transform="translate(80 90)"><rect width="740" height="420" rx="34" fill="#0f1712" stroke="#eaf7ed" stroke-width="6"/><g stroke="#eaf7ed" opacity=".14" stroke-width="2"><path d="M70 70 H690"/><path d="M70 150 H690"/><path d="M70 230 H690"/><path d="M70 310 H690"/><path d="M150 40 V360"/><path d="M290 40 V360"/><path d="M430 40 V360"/><path d="M570 40 V360"/></g><path d="M70 330 C120 290 155 175 220 112 C280 52 375 55 435 118 C500 187 535 265 675 316" fill="none" stroke="#2ea866" stroke-width="12" stroke-linecap="round"/><path d="M70 335 C120 302 160 205 222 138 C280 75 365 83 420 152 C485 235 535 292 675 320" fill="none" stroke="#c5ad63" stroke-width="9" stroke-linecap="round" opacity=".88"/><path d="M70 338 C150 326 190 314 230 294 C285 267 320 215 350 162 C385 104 455 70 505 135 C560 205 585 298 675 324" fill="none" stroke="#69b78a" stroke-width="8" stroke-linecap="round" opacity=".85"/><text x="64" y="396" font-family="Arial" font-weight="900" font-size="28" fill="#eaf7ed">thrust-time profile clusters</text></g><g fill="#0f1712" font-family="Arial" font-weight="900"><text x="80" y="58" font-size="34">SMAC / AE8900</text></g></svg>