<svg xmlns="http://www.w3.org/2000/svg" viewBox="0 0 900 600"><rect width="900" height="600" fill="#e7efd2"/><g transform="translate(110 120)"><path d="M0 290 C90 160 180 340 270 210 C365 70 455 305 550 175 C605 105 650 115 690 145 L690 370 L0 370 Z" fill="#4d6b43" opacity=".9" stroke="#14120e" stroke-width="6"/><path d="M0 250 C100 120 190 300 285 170 C385 35 470 250 555 132 C620 45 665 70 690 100" fill="none" stroke="#e9733d" stroke-width="10" stroke-linecap="round"/><g fill="#fff8ec" stroke="#14120e" stroke-width="4"><circle cx="95" cy="190" r="13"/><circle cx="190" cy="290" r="13"/><circle cx="285" cy="170" r="13"/><circle cx="420" cy="110" r="13"/><circle cx="555" cy="132" r="13"/><circle cx="650" cy="80" r="13"/></g></g><text x="85" y="85" font-family="Arial" font-weight="900" font-size="42" fill="#14120e">surrogate model learning</text><text x="85" y="130" font-family="Arial" font-weight="700" font-size="22" fill="#6d675c">GP · RSM · RBF · uncertainty</text></svg>