<svg xmlns="http://www.w3.org/2000/svg" viewBox="0 0 900 620" role="img" aria-label="Atlanta road network resilience illustration">
  <defs>
    <linearGradient id="an-bg" x1="0" y1="0" x2="1" y2="1"><stop stop-color="#04191f"/><stop offset="1" stop-color="#082b33"/></linearGradient>
    <radialGradient id="an-pulse" cx=".5" cy=".5" r=".5"><stop stop-color="#f5a524" stop-opacity=".55"/><stop offset="1" stop-color="#f5a524" stop-opacity="0"/></radialGradient>
    <filter id="an-glow" x="-60%" y="-60%" width="220%" height="220%"><feGaussianBlur stdDeviation="5" result="b"/><feMerge><feMergeNode in="b"/><feMergeNode in="SourceGraphic"/></feMerge></filter>
  </defs>
  <rect width="900" height="620" rx="38" fill="url(#an-bg)"/>
  <g stroke="#0d333b" stroke-width="1.5">
    <path d="M0 155 H900 M0 310 H900 M0 465 H900 M150 0 V620 M300 0 V620 M450 0 V620 M600 0 V620 M750 0 V620" opacity=".55"/>
  </g>
  <g fill="none" stroke="#155e56" stroke-width="3.5" opacity=".9">
    <path d="M120 520 C220 430 260 380 330 330 S470 240 560 200 720 130 800 105"/>
    <path d="M110 140 C220 200 320 260 450 310 S680 430 790 500"/>
    <path d="M450 60 C440 180 450 300 452 420 S455 520 458 570"/>
    <path d="M140 330 C280 320 420 316 560 322 S740 336 812 344"/>
  </g>
  <g fill="none" stroke="#1e7f74" stroke-width="2" opacity=".8">
    <path d="M200 190 L330 330 M330 330 L452 310 M560 200 L560 322 M660 260 L560 322 M660 260 L800 105 M240 440 L330 330 M240 440 L452 420 M660 430 L560 322 M660 430 L790 500 M200 190 L110 140 M240 440 L120 520 M660 260 L560 200 M452 310 L560 322 M452 420 L560 322"/>
  </g>
  <path d="M330 330 L452 310" stroke="#f5a524" stroke-width="5" filter="url(#an-glow)"/>
  <circle cx="391" cy="320" r="46" fill="url(#an-pulse)"/>
  <g transform="translate(391 320)">
    <circle r="15" fill="#04191f" stroke="#f5a524" stroke-width="3"/>
    <path d="M0 -7 L0 3 M0 7 L0 8" stroke="#ffc46b" stroke-width="3" stroke-linecap="round"/>
  </g>
  <g fill="#2dd4bf" stroke="#04191f" stroke-width="2">
    <circle cx="200" cy="190" r="9"/><circle cx="330" cy="330" r="11"/><circle cx="452" cy="310" r="9"/>
    <circle cx="560" cy="200" r="9"/><circle cx="660" cy="260" r="11"/><circle cx="240" cy="440" r="11"/>
    <circle cx="452" cy="420" r="9"/><circle cx="660" cy="430" r="9"/><circle cx="800" cy="105" r="9"/>
    <circle cx="110" cy="140" r="9"/><circle cx="120" cy="520" r="9"/><circle cx="790" cy="500" r="9"/><circle cx="560" cy="322" r="9"/>
  </g>
  <g fill="#8beee0" filter="url(#an-glow)">
    <circle cx="560" cy="200" r="4"/><circle cx="240" cy="440" r="4"/><circle cx="660" cy="260" r="4"/>
  </g>
  <g transform="translate(556 468)">
    <rect x="0" y="0" width="284" height="104" rx="18" fill="rgba(4,25,31,.85)" stroke="rgba(139,238,224,.25)" stroke-width="1.5"/>
    <circle cx="26" cy="30" r="7" fill="#2dd4bf"/><text x="44" y="35" font-family="Inter,system-ui,sans-serif" font-size="14" fill="#d3efec">network node / service point</text>
    <rect x="19" y="56" width="16" height="5" rx="2" fill="#f5a524"/><text x="44" y="65" font-family="Inter,system-ui,sans-serif" font-size="14" fill="#d3efec">disrupted link scenario</text>
    <text x="20" y="92" font-family="Inter,system-ui,sans-serif" font-size="12" fill="#96bcbe">travel time - accessibility - equity layers</text>
  </g>
  <g font-family="Inter,system-ui,sans-serif" font-weight="700">
    <text x="64" y="82" font-size="26" fill="#eefbfa">ATLANTA MOBILITY RESILIENCE</text>
    <text x="64" y="110" font-size="15" fill="#96bcbe">digital twin - disruption scenarios - access to essential services</text>
  </g>
  <rect x="24" y="24" width="852" height="572" rx="32" fill="none" stroke="rgba(139,238,224,.18)" stroke-width="1.5"/>
</svg>
