<svg xmlns="http://www.w3.org/2000/svg" viewBox="0 0 520 520" role="img" aria-label="Vinyl record playlist moodboard illustration">
  <defs>
    <linearGradient id="vn-bg" x1="0" y1="0" x2="1" y2="1"><stop stop-color="#062229"/><stop offset="1" stop-color="#0a2a32"/></linearGradient>
    <radialGradient id="vn-disc" cx=".38" cy=".34" r=".85"><stop stop-color="#123840"/><stop offset=".55" stop-color="#04151a"/><stop offset="1" stop-color="#02090c"/></radialGradient>
    <linearGradient id="vn-label" x1="0" y1="0" x2="1" y2="1"><stop stop-color="#f5a524"/><stop offset="1" stop-color="#c97d10"/></linearGradient>
    <linearGradient id="vn-sheen" x1="0" y1="0" x2="1" y2="1"><stop stop-color="#8beee0" stop-opacity=".35"/><stop offset=".5" stop-color="#8beee0" stop-opacity="0"/></linearGradient>
    <filter id="vn-glow" x="-40%" y="-40%" width="180%" height="180%"><feGaussianBlur stdDeviation="6" result="b"/><feMerge><feMergeNode in="b"/><feMergeNode in="SourceGraphic"/></feMerge></filter>
  </defs>
  <rect width="520" height="520" rx="36" fill="url(#vn-bg)"/>
  <circle cx="150" cy="90" r="60" fill="rgba(45,212,191,.10)"/>
  <circle cx="440" cy="440" r="90" fill="rgba(245,165,36,.07)"/>
  <circle cx="260" cy="268" r="188" fill="url(#vn-disc)" stroke="#1c4c50" stroke-width="2"/>
  <g fill="none" stroke="#2dd4bf" opacity=".35">
    <circle cx="260" cy="268" r="168" stroke-width="1"/>
    <circle cx="260" cy="268" r="150" stroke-width="1.4"/>
    <circle cx="260" cy="268" r="132" stroke-width="1"/>
    <circle cx="260" cy="268" r="114" stroke-width="1.4"/>
    <circle cx="260" cy="268" r="96" stroke-width="1"/>
  </g>
  <path d="M92 268 A168 168 0 0 1 260 100" fill="none" stroke="url(#vn-sheen)" stroke-width="34" opacity=".6"/>
  <circle cx="260" cy="268" r="62" fill="url(#vn-label)"/>
  <circle cx="260" cy="268" r="62" fill="none" stroke="#04151a" stroke-width="2"/>
  <circle cx="260" cy="268" r="8" fill="#04151a"/>
  <text x="260" y="248" text-anchor="middle" font-family="Inter,system-ui,sans-serif" font-size="13" font-weight="800" fill="#04151a" letter-spacing="1">SIDE A</text>
  <text x="260" y="300" text-anchor="middle" font-family="Inter,system-ui,sans-serif" font-size="11" font-weight="700" fill="#063a34">MOODBOARD</text>
  <g transform="translate(400 96) rotate(24)" filter="url(#vn-glow)">
    <rect x="-6" y="0" width="12" height="150" rx="6" fill="#155e56"/>
    <circle cx="0" cy="0" r="16" fill="#0a2a32" stroke="#2dd4bf" stroke-width="3"/>
    <rect x="-10" y="142" width="20" height="26" rx="6" fill="#ffc46b"/>
  </g>
  <g fill="#8beee0" font-family="Inter,system-ui,sans-serif" font-weight="800">
    <text x="82" y="70" font-size="26" transform="rotate(-8 82 70)">&#9834;</text>
    <text x="452" y="330" font-size="30" transform="rotate(12 452 330)">&#9835;</text>
    <text x="96" y="452" font-size="24" fill="#ffc46b" transform="rotate(-14 96 452)">&#9834;</text>
  </g>
  <g transform="translate(60 480)">
    <g fill="#2dd4bf">
      <rect x="0" y="-26" width="6" height="26" rx="3" opacity=".9"/>
      <rect x="12" y="-40" width="6" height="40" rx="3" opacity=".7"/>
      <rect x="24" y="-16" width="6" height="16" rx="3" opacity=".9"/>
      <rect x="36" y="-34" width="6" height="34" rx="3" opacity=".6"/>
      <rect x="48" y="-22" width="6" height="22" rx="3" opacity=".9"/>
      <rect x="60" y="-44" width="6" height="44" rx="3" fill="#f5a524" opacity=".85"/>
      <rect x="72" y="-30" width="6" height="30" rx="3" opacity=".7"/>
    </g>
  </g>
  <rect x="18" y="18" width="484" height="484" rx="30" fill="none" stroke="rgba(139,238,224,.18)" stroke-width="1.5"/>
</svg>
